<?xml version="1.0" encoding="UTF-8" standalone="no"?>
<!-- Created with Inkscape (http://www.inkscape.org/) -->

<svg
   width="43.255764mm"
   height="86.278168mm"
   viewBox="0 0 43.255764 86.278168"
   version="1.1"
   id="svg1"
   xml:space="preserve"
   xmlns:inkscape="http://www.inkscape.org/namespaces/inkscape"
   xmlns:sodipodi="http://sodipodi.sourceforge.net/DTD/sodipodi-0.dtd"
   xmlns="http://www.w3.org/2000/svg"
   xmlns:svg="http://www.w3.org/2000/svg"><sodipodi:namedview
     id="namedview1"
     pagecolor="#ffffff"
     bordercolor="#000000"
     borderopacity="0.25"
     inkscape:showpageshadow="2"
     inkscape:pageopacity="0.0"
     inkscape:pagecheckerboard="0"
     inkscape:deskcolor="#d1d1d1"
     inkscape:document-units="mm" /><defs
     id="defs1" /><g
     inkscape:label="Layer 1"
     inkscape:groupmode="layer"
     id="layer1"
     transform="translate(-30.496564,-41.589946)"><path
       id="path1"
       style="fill:#000000"
       d="m 51.803423,41.589955 c -0.26434,3.16e-4 -0.73433,0.288994 -0.73433,0.451135 0,0.05548 -0.0759,0.148506 -0.16898,0.206706 -0.0931,0.05817 -0.1695,0.14647 -0.1695,0.19637 0,0.10073 -0.48119,0.851323 -0.90847,1.416968 -0.15219,0.20147 -0.27698,0.404752 -0.27698,0.451652 0,0.0469 -0.28534,0.500792 -0.63459,1.008207 -0.34925,0.50743 -0.6351,0.961658 -0.6351,1.009758 0,0.04809 -0.0342,0.153711 -0.076,0.234611 -0.0418,0.08086 -0.14579,0.318583 -0.23099,0.528133 -0.0852,0.20955 -0.22163,0.429993 -0.30283,0.489893 -0.0812,0.05991 -0.19026,0.269404 -0.24236,0.465604 -0.0842,0.31701 -0.33249,0.935503 -0.73897,1.838648 -0.0734,0.16299 -0.26006,0.496708 -0.41445,0.742073 -0.15439,0.24538 -0.2806,0.515464 -0.2806,0.599964 0,0.08454 -0.0725,0.37929 -0.16123,0.65474 -0.0887,0.27545 -0.18902,0.67205 -0.22272,0.8816 -0.0478,0.297396 -0.15772,0.485856 -0.5023,0.858346 l -0.44183,0.476973 -0.15245,1.112077 c -0.15135,1.101873 -0.15118,1.115593 0.0186,1.470193 0.40765,0.85145 0.46591,1.05709 0.40721,1.4304 -0.11503,0.73309 -0.0314,1.57466 0.20464,2.06034 0.0453,0.0931 0.14445,0.41718 0.22015,0.71986 0.0757,0.30268 0.22618,0.74074 0.33434,0.97358 0.10816,0.23283 0.27784,0.60114 0.37724,0.81856 0.0994,0.21743 0.23584,0.44112 0.30334,0.49712 0.0676,0.056 0.12299,0.14566 0.12299,0.19896 0,0.0533 0.0884,0.22955 0.19637,0.3917 0.27215,0.40871 0.42507,1.1785 0.35967,1.8092 -0.07,0.67513 0.14177,2.163 0.37,2.60087 0.096,0.18417 0.17467,0.40761 0.17467,0.49661 0,0.0889 0.0383,0.18566 0.0847,0.21446 0.0466,0.0288 0.085,0.11654 0.0853,0.19534 2.8e-4,0.0787 0.057,0.25212 0.12661,0.3855 0.0696,0.13338 0.12661,0.31424 0.12661,0.40204 0,0.0878 0.04,0.15968 0.0889,0.15968 0.049,0 0.14471,0.12409 0.21291,0.27544 0.0682,0.15134 0.1586,0.33214 0.2005,0.40204 0.15406,0.2567 0.41596,0.9834 0.47336,1.31258 0.0325,0.18626 0.13669,0.50979 0.23099,0.71934 0.28946,0.64337 0.30656,0.70166 0.39326,1.31258 0.0531,0.37772 0.0556,0.74265 0.004,1.00666 -0.12431,0.64665 0.0696,1.61022 0.47026,2.33732 0.25808,0.46831 0.5462,1.60041 0.72192,2.83652 0.053,0.37254 0.14332,0.75388 0.20102,0.84698 0.0577,0.0931 0.19126,0.45484 0.29662,0.80409 0.10537,0.3491 0.23591,0.73018 0.28991,0.84645 0.0628,0.13552 0.10259,0.83639 0.11059,1.94769 0.007,0.95462 0.0408,2.60025 0.0749,3.65662 0.055,1.70427 0.0448,1.98586 -0.0899,2.49753 -0.0835,0.3172 -0.18891,0.62521 -0.23461,0.68471 -0.0456,0.0595 -0.087,0.61212 -0.092,1.22783 -0.0102,1.28924 0.0968,1.62627 0.70124,2.21279 0.18777,0.18219 0.32176,0.36304 0.29766,0.40204 -0.0241,0.039 -0.26297,0.0708 -0.53072,0.0708 -0.26775,0 -0.54971,0.0477 -0.62631,0.10594 -0.0766,0.0582 -0.26462,0.35361 -0.41807,0.65629 -0.26382,0.52028 -0.27905,0.59974 -0.27905,1.45418 v 0.90382 l 0.34778,0.49299 c 0.19126,0.27127 0.45202,0.69961 0.57981,0.951884 0.28678,0.56609 0.95953,1.28973 1.42937,1.53737 1.28314,0.6767 2.74627,1.26349 3.14968,1.26349 0.10787,0 0.24649,0.0502 0.30799,0.11111 0.23623,0.23388 1.28113,0.90495 1.41284,0.90795 0.0761,10e-4 0.21242,0.0587 0.30282,0.12713 0.0904,0.0684 0.21779,0.12402 0.28319,0.12402 0.0654,0 0.32785,0.0606 0.58342,0.13488 0.43844,0.12747 0.46185,0.1481 0.41135,0.36018 -0.0568,0.23862 -0.43118,0.60584 -0.84801,0.83199 -0.30881,0.16752 -1.43901,0.18058 -2.09083,0.0243 -0.72524,-0.17398 -3.57273,-0.004 -4.17597,0.25011 -0.0931,0.0392 -0.42493,0.11053 -0.73691,0.15813 -0.31198,0.0476 -0.69277,0.1542 -0.84646,0.2372 -0.24176,0.13062 -0.53612,0.15298 -2.18436,0.16588 -2.13274,0.0168 -2.89707,0.12647 -3.43493,0.49196 -0.18142,0.12328 -0.3743,0.22427 -0.4284,0.22427 -0.17003,0 -0.62425,-0.48367 -0.62425,-0.66455 0,-0.0951 -0.0705,-0.22239 -0.1571,-0.28319 -0.0866,-0.0608 -0.25502,-0.30151 -0.37414,-0.53434 -0.11911,-0.23283 -0.29574,-0.4895 -0.39274,-0.5705 -0.097,-0.081 -0.17673,-0.19999 -0.17673,-0.26459 0,-0.0646 -0.0536,-0.1618 -0.11886,-0.216 -0.0653,-0.0542 -0.21723,-0.3005 -0.33796,-0.54726 -0.26666,-0.54503 -0.36738,-0.63443 -1.05833,-0.93689 -0.46176,-0.20209 -0.60519,-0.22813 -0.97359,-0.17673 -0.79055,0.1103 -0.76132,0.11938 -0.82992,-0.25115 -0.0344,-0.18627 -0.0852,-0.5194 -0.11266,-0.74001 -0.0918,-0.7351 -1.373785,-2.300614 -2.05,-2.503214 -0.77587,-0.2323 -2.006238,-0.0467 -2.389002,0.36071 -0.18699,0.19904 -0.19536,0.25297 -0.14366,0.953944 0.05725,0.77592 0.204276,1.41303 0.42478,1.84382 0.28631,0.55926 0.402999,1.24088 0.345199,2.01176 -0.04531,0.60415 -0.03003,0.78018 0.0801,0.94826 l 0.134876,0.20671 -1.586467,-0.0506 c -1.5117,-0.0482 -1.603414,-0.0423 -1.944584,0.13177 -0.2036,0.10388 -0.417144,0.2963 -0.494544,0.44597 -0.166115,0.32126 -0.594018,0.75138 -0.747758,0.75138 -0.06196,0 -0.213196,0.0787 -0.335896,0.17518 -0.29862,0.23509 -0.294455,0.57416 0.01034,0.85214 0.25772,0.23509 1.19169,0.7048 1.5875,0.7984 0.1397,0.033 0.291881,0.0898 0.338481,0.12558 0.196855,0.15145 1.141452,0.61469 1.651062,0.80977 0.302665,0.11587 0.626236,0.26021 0.719336,0.32091 0.458289,0.29888 1.722343,0.77353 2.705778,1.01596 l 1.097086,0.27026 0.25787,0.4284 c 0.3358,0.55865 1.04525,1.25569 1.35857,1.33429 0.15023,0.0377 0.49939,0.32564 0.88935,0.73329 0.35314,0.36915 0.70765,0.67127 0.78755,0.67127 0.08,0 0.21159,0.0335 0.29249,0.0749 0.55068,0.28203 1.16096,0.51744 1.6707,0.64441 2.02078,0.50333 1.81401,0.48393 5.24929,0.50333 3.85906,0.0218 5.08656,0.1495 6.94273,0.72192 0.32597,0.10052 0.68818,0.20407 0.8046,0.23047 0.11641,0.0264 0.269,0.0975 0.339,0.15813 0.15953,0.13808 1.02335,0.32913 2.28565,0.5054 1.21431,0.16957 2.1664,0.34139 2.49752,0.4501 0.1397,0.0459 0.30587,0.0874 0.36897,0.0909 0.12918,0.008 0.55431,-0.32882 0.78548,-0.6227 l 0.15245,-0.1943 -1.00252,-0.18707 c -0.55147,-0.1028 -1.45515,-0.25842 -2.00815,-0.34572 -1.78372,-0.28149 -2.88543,-0.55738 -3.45457,-0.86506 -0.17629,-0.0953 -0.67017,-0.23147 -1.61902,-0.44649 -1.12293,-0.25433 -3.6985,-0.40268 -6.2575,-0.36018 -1.939,0.0322 -2.54047,0.0162 -2.87838,-0.0775 -0.23497,-0.0651 -0.9418,-0.24779 -1.57045,-0.40566 -1.30358,-0.32741 -2.29995,-0.75189 -2.66082,-1.1343 -0.28371,-0.30078 -0.24524,-0.41294 0.0972,-0.28112 0.12955,0.0499 0.36877,0.11629 0.53175,0.14779 0.16299,0.0315 0.49027,0.14828 0.7276,0.25942 0.23733,0.1111 0.52318,0.20364 0.6351,0.20464 0.11192,0.001 0.58441,0.13842 1.05007,0.30437 1.2715,0.45312 2.18202,0.58665 3.175,0.46612 0.44238,-0.0537 1.07888,-0.0971 1.41438,-0.0966 l 0.6103,0.001 0.0563,-0.30076 c 0.0673,-0.35853 0.002,-0.44939 -0.22221,-0.30954 -0.13888,0.0867 -0.16536,0.0814 -0.16536,-0.0346 0,-0.1103 -0.0547,-0.12805 -0.26924,-0.0847 -0.148,0.0296 -0.68374,0.009 -1.19062,-0.046 -0.71924,-0.0781 -1.06408,-0.0763 -1.572,0.004 -0.60115,0.0961 -0.69314,0.09 -1.20148,-0.0791 -0.66599,-0.22152 -1.62618,-0.41948 -2.03605,-0.41962 -0.16531,-1e-4 -0.33665,-0.0355 -0.38085,-0.0785 -0.0757,-0.0736 -0.24795,-0.11637 -1.3932,-0.34985 -0.89298,-0.18205 -1.14528,-0.28867 -1.5229,-0.64234 -0.20916,-0.19582 -0.35188,-0.38503 -0.31678,-0.42013 0.0351,-0.0351 0.32082,0.0187 0.63459,0.11937 0.84371,0.27082 1.31045,0.35724 2.39055,0.44184 0.53551,0.0419 1.37398,0.1334 1.86293,0.2036 1.01895,0.1462 3.9965,0.17826 4.77387,0.0506 0.27419,-0.0449 0.56529,-0.1421 0.64699,-0.216 0.0817,-0.0739 0.25761,-0.16366 0.39067,-0.19896 0.19726,-0.0523 0.24705,-0.1169 0.26975,-0.35088 0.051,-0.52617 -0.42556,-0.67585 -0.80305,-0.25218 -0.12448,0.1397 -0.26782,0.25318 -0.31832,0.25218 -0.0505,-10e-4 -0.32057,-0.11457 -0.59997,-0.25218 -0.69772,-0.34364 -1.17372,-0.34014 -1.80712,0.0129 -0.93787,0.523 -0.85733,0.50313 -1.60869,0.39687 -0.63525,-0.0898 -0.6904,-0.11297 -0.6904,-0.29197 0,-0.10697 0.0446,-0.2925 0.0992,-0.41238 0.0714,-0.15616 0.0717,-0.24394 0.008,-0.30954 -0.12951,-0.12951 -0.62337,0.0462 -0.87126,0.31006 -0.10809,0.11511 -0.24216,0.20929 -0.29766,0.20929 -0.0555,0 -0.19206,0.0718 -0.30385,0.15968 -0.33559,0.26398 -0.78411,0.34713 -1.36995,0.25373 -0.60418,-0.0963 -1.81796,-0.496 -2.55591,-0.84181 -0.2794,-0.13093 -0.73708,-0.2947 -1.01648,-0.3638 -1.783762,-0.44116 -2.811904,-0.80848 -3.601329,-1.28571 -0.258004,-0.15597 -0.570345,-0.32197 -0.694015,-0.36897 -0.198776,-0.0756 -0.227931,-0.13713 -0.25063,-0.5333 -0.02395,-0.41709 -0.04718,-0.46015 -0.333313,-0.61805 -1.133905,-0.62574 -1.216463,-0.68331 -1.216463,-0.84698 0,-0.1476 0.06521,-0.17234 0.507979,-0.19534 0.479195,-0.0249 2.188645,0.0849 3.59823,0.231 0.349235,0.0362 0.787314,0.13202 0.973584,0.21342 1.014467,0.44337 1.233217,0.48605 2.709397,0.52865 1.35686,0.0391 1.45736,0.0536 1.74821,0.25115 0.44285,0.30082 1.10196,0.45117 1.98593,0.45217 0.83133,0.001 0.74015,0.0381 1.64227,-0.67025 0.33264,-0.26109 1.57488,-0.37057 3.03134,-0.26716 l 1.20045,0.0853 0.52451,-0.24804 c 0.28843,-0.13641 0.71757,-0.28425 0.95343,-0.32815 1.95082,-0.36323 3.55252,-0.49378 4.28088,-0.34881 0.89089,0.17734 1.87263,0.19788 2.44429,0.0517 0.71588,-0.1834 0.77628,-0.17668 1.19425,0.12609 0.3471,0.25144 0.39132,0.26075 1.07022,0.23255 0.4661,-0.0194 0.72044,0.003 0.74414,0.0646 0.0198,0.0517 0.27254,0.25166 0.5612,0.44442 0.42878,0.28627 0.59726,0.35088 0.92139,0.35088 0.42435,0 0.59997,-0.10639 0.59997,-0.36328 0,-0.1975 -0.32149,-0.47659 -0.55294,-0.48059 -0.0944,-0.002 -0.23656,-0.0795 -0.31626,-0.1726 -0.0798,-0.0931 -0.19468,-0.16898 -0.25528,-0.16898 -0.28661,0 -0.95703,-0.91645 -1.19218,-1.62988 -0.0656,-0.19904 -0.30799,-0.1898 -0.30799,0.0119 0,0.0882 -0.0572,0.18249 -0.12712,0.20929 -0.17855,0.0685 -0.15855,0.24243 0.0842,0.7462 0.11607,0.24068 0.19585,0.45269 0.17725,0.47129 -0.0877,0.0877 -0.62984,-0.15085 -0.8847,-0.38964 -0.28412,-0.26621 -0.28449,-0.2672 -0.13333,-0.49919 0.0833,-0.12781 0.25922,-0.33336 0.39068,-0.45682 0.20013,-0.18797 0.23874,-0.29314 0.23874,-0.64596 0,-0.48121 -0.0627,-0.55526 -0.59221,-0.69608 -1.29279,-0.34379 -2.84232,-0.99112 -2.93212,-1.22525 -0.0738,-0.19226 -0.45555,-0.37037 -1.20354,-0.5612 -0.60756,-0.15497 -1.50709,-0.50388 -2.08773,-0.80977 -0.1397,-0.0736 -0.39761,-0.20971 -0.57309,-0.30231 -0.35791,-0.18885 -0.85626,-0.743644 -0.75706,-0.842844 0.0599,-0.0599 0.35625,-0.003 0.99787,0.191204 0.14301,0.0433 0.4902,0.0791 0.77153,0.0791 0.43852,0 0.55579,-0.0358 0.82424,-0.249094 0.68371,-0.54319 1.06601,-1.17372 1.06401,-1.75751 -0.002,-0.67303 -0.0622,-0.78002 -0.56895,-1.01183 -0.25415,-0.11625 -0.4442,-0.22914 -0.4222,-0.25114 0.0851,-0.0851 0.88531,0.1713 1.28468,0.41186 0.2307,0.13896 0.55473,0.30292 0.71985,0.36432 0.41396,0.15408 1.40685,0.57536 1.86603,0.79168 0.20955,0.0987 0.68493,0.3883 1.05627,0.64389 0.37134,0.25559 0.71443,0.46532 0.76223,0.4656 0.0478,2.9e-4 0.18594,0.0524 0.30747,0.11576 0.29352,0.15315 1.30048,0.476464 1.48415,0.476464 0.0801,0 0.2722,0.0381 0.42685,0.0847 0.15465,0.0466 0.4243,0.1269 0.59893,0.1788 0.17462,0.0519 0.43184,0.14179 0.57154,0.19999 0.65771,0.27384 0.97772,0.37883 1.56166,0.51212 0.59604,0.13606 0.66987,0.18071 1.35444,0.80873 0.39829,0.36539 0.86459,0.77032 1.03611,0.90021 0.26623,0.20161 0.99192,0.76287 2.24121,1.73322 0.16056,0.12471 0.36343,0.31747 0.45113,0.42892 0.0877,0.11145 0.41943,0.37774 0.73691,0.59169 0.68371,0.46073 1.08637,0.86951 1.15807,1.17564 0.0286,0.12217 0.12226,0.30932 0.20826,0.41548 l 0.15606,0.19275 0.2713,-0.19998 c 0.29652,-0.21921 0.39663,-0.47349 0.31523,-0.79789 -0.0744,-0.29655 -0.73184,-1.07923 -1.02526,-1.22111 -0.13544,-0.0655 -0.53313,-0.34423 -0.88419,-0.61909 -0.35105,-0.27487 -0.7496,-0.58318 -0.88573,-0.68523 -0.13613,-0.10206 -0.3731,-0.29955 -0.52607,-0.43925 -0.15296,-0.1397 -0.67002,-0.55919 -1.14928,-0.93172 -0.47926,-0.37253 -1.14316,-0.94962 -1.47536,-1.28261 -0.75844,-0.76025 -0.85437,-0.81735 -1.68207,-0.99994 -0.37254,-0.0822 -0.74334,-0.182984 -0.82424,-0.224284 -0.0809,-0.0414 -0.19825,-0.0754 -0.26045,-0.0754 -0.0622,0 -0.34803,-0.11365 -0.6351,-0.2527 -0.28706,-0.13906 -0.67459,-0.27758 -0.86145,-0.30748 -0.33075,-0.0529 -0.44579,-0.21112 -0.24391,-0.33589 0.15251,-0.0943 0.0309,-1.18449 -0.20723,-1.8557 -0.29387,-0.82854 -0.30749,-1.0058 -0.32349,-4.19096 -0.0127,-2.53651 -0.0316,-2.89367 -0.17828,-3.37912 -0.21353,-0.70699 -0.1851,-2.27326 0.046,-2.52853 0.0793,-0.0875 0.14366,-0.21789 0.14366,-0.28939 0,-0.0716 0.0799,-0.23115 0.17725,-0.35502 0.62361,-0.79279 1.07764,-2.27718 1.17564,-3.84317 0.0503,-0.80375 0.11019,-1.18456 0.20929,-1.33584 0.0763,-0.11639 0.11695,-0.24562 0.0915,-0.28732 -0.0258,-0.0417 0.0488,-0.45039 0.16537,-0.90795 0.22325,-0.87624 0.28437,-2.02231 0.13487,-2.51923 -0.043,-0.143 -0.11423,-0.50761 -0.15813,-0.81029 -0.13275,-0.91416 -0.59631,-2.00632 -1.0852,-2.55643 -0.15285,-0.17198 -0.31974,-0.47693 -0.37104,-0.67748 -0.0512,-0.20055 -0.13882,-0.47901 -0.19482,-0.61856 -0.14047,-0.35032 -0.13211,-2.79413 0.0103,-3.13883 0.15546,-0.37541 0.0891,-3.51132 -0.092,-4.35426 -0.36438,-1.69584 -0.64531,-2.08985 -1.83554,-2.57348 -0.71003,-0.28854 -2.02231,-0.3188 -2.5275,-0.0584 -0.4015,0.20695 -0.81599,0.64455 -0.96893,1.02319 -0.13081,0.32409 -0.1902,1.52423 -0.1912,3.8747 -6.1e-4,1.18207 -0.022,1.45301 -0.11317,1.41801 -0.062,-0.0238 -0.14541,-0.0434 -0.18501,-0.0434 -0.0396,0 -0.21012,-0.16831 -0.37878,-0.37414 -0.22654,-0.27645 -0.34895,-0.54744 -0.46819,-1.03715 -0.0888,-0.3646 -0.23893,-0.86348 -0.33383,-1.10846 -0.0949,-0.24497 -0.1726,-0.58933 -0.1726,-0.76532 0,-0.37877 -0.19897,-1.17933 -0.4129,-1.66295 -0.0839,-0.18963 -0.36779,-0.67601 -0.63148,-1.08056 -0.31223,-0.47903 -0.47956,-0.82401 -0.47956,-0.98908 0,-0.13941 -0.0383,-0.27713 -0.0847,-0.30593 -0.0466,-0.0288 -0.0847,-0.12764 -0.0847,-0.22014 0,-0.25379 -0.67612,-2.01286 -0.94051,-2.44688 -0.12765,-0.20955 -0.25747,-0.48416 -0.28887,-0.6103 -0.0314,-0.12615 -0.1104,-0.27342 -0.1757,-0.32762 -0.0653,-0.0542 -0.11886,-0.13147 -0.11886,-0.17157 0,-0.0401 -0.10779,-0.29496 -0.23926,-0.56637 -0.1862,-0.38449 -0.22046,-0.53421 -0.15606,-0.67852 0.0455,-0.10191 0.11329,-0.18551 0.15089,-0.18551 0.11169,0 0.32918,-0.84544 0.32918,-1.28003 0,-0.221475 -0.0593,-0.656937 -0.13126,-0.967382 -0.15114,-0.65173 -0.17075,-0.602664 0.58757,-1.471745 0.26107,-0.29922 0.4749,-0.5766 0.4749,-0.6165 0,-0.03992 0.17554,-0.423466 0.39016,-0.852661 0.34051,-0.680975 0.396,-0.867955 0.4346,-1.465544 0.0519,-0.803925 -0.05,-1.187916 -0.42943,-1.620056 -0.28692,-0.3268 -0.26668,-0.14718 -0.30128,-2.690275 -0.002,-0.1397 0.0166,-0.641919 0.0413,-1.115694 0.0553,-1.060315 0.005,-1.177158 -0.88315,-2.080493 -0.50721,-0.51565 -0.69691,-0.656101 -0.8878,-0.656291 z m -0.11834,1.100708 c 0.16739,0 0.67705,0.475464 0.82889,0.773079 0.19461,0.38152 0.22091,1.129314 0.046,1.304314 -0.10055,0.100515 -0.16785,0.09328 -0.46147,-0.04858 -0.48354,-0.23366 -1.0333,-0.220542 -1.26866,0.02997 -0.10125,0.10778 -0.18389,0.231319 -0.18397,0.274919 -2.5e-4,0.13025 -0.92359,1.105315 -0.92759,0.979785 -0.002,-0.06361 0.13363,-0.302337 0.30128,-0.530717 0.16764,-0.22838 0.39389,-0.600034 0.50281,-0.825789 0.10892,-0.22578 0.35369,-0.590744 0.54415,-0.810804 0.19472,-0.224965 0.38987,-0.563339 0.44597,-0.773079 0.0549,-0.20515 0.1326,-0.373104 0.1726,-0.373104 z m -0.16123,2.212785 c 0.0944,-0.01354 0.22154,0.02758 0.40204,0.120923 0.37024,0.19145 0.7518,1.02958 0.75189,1.652095 8e-5,0.58175 -0.21236,0.823657 -0.82062,0.934827 -0.42203,0.07714 -0.70332,0.309947 -0.70332,0.581877 0,0.08226 -0.0637,0.201716 -0.14159,0.265616 -0.0779,0.06391 -0.29052,0.43312 -0.47232,0.820105 -0.18179,0.38701 -0.38484,0.724425 -0.45114,0.749825 -0.0663,0.02543 -0.1204,0.09513 -0.1204,0.15503 0,0.05991 -0.0572,0.130813 -0.12713,0.157613 -0.0698,0.02681 -0.12661,0.123691 -0.12661,0.215491 0,0.09184 -0.0381,0.190824 -0.0847,0.219624 -0.0466,0.02878 -0.0858,0.116637 -0.0868,0.195337 -10e-4,0.07874 -0.11456,0.371738 -0.25218,0.651123 -0.13761,0.2794 -0.25118,0.53976 -0.25218,0.57826 -10e-4,0.03851 -0.17522,0.424754 -0.38758,0.858345 -0.38389,0.783865 -0.53963,1.423113 -0.54363,2.229838 -10e-4,0.309019 -0.0651,0.442679 -0.41651,0.876949 -0.22801,0.2818 -0.43751,0.62741 -0.46561,0.76791 -0.0854,0.42696 -0.0572,1.6477 0.0439,1.90118 0.1237,0.31 0.24689,1.2229 0.29869,2.21175 0.0356,0.67985 0.0613,0.78459 0.18396,0.76119 0.11686,-0.0222 0.15096,-0.17029 0.19276,-0.83044 0.0305,-0.48235 0.12297,-1.00672 0.23099,-1.31154 0.099,-0.2794 0.1809,-0.68196 0.1819,-0.89452 0.002,-0.35984 -0.0186,-0.39633 -0.29714,-0.52917 -0.16456,-0.0785 -0.3601,-0.14263 -0.4346,-0.14263 -0.115,0 -0.12924,-0.0873 -0.0946,-0.57671 0.0432,-0.60392 0.15007,-0.84058 0.62063,-1.37717 0.24765,-0.28244 0.26909,-0.35836 0.31419,-1.114664 0.0329,-0.55144 0.10481,-0.939529 0.22479,-1.210779 0.0971,-0.21953 0.17674,-0.460918 0.17674,-0.536918 0,-0.07601 0.0764,-0.185713 0.1695,-0.243913 0.0931,-0.05816 0.16898,-0.163477 0.16898,-0.233577 0,-0.07009 0.0349,-0.193502 0.0775,-0.274402 0.0426,-0.08086 0.2049,-0.413308 0.36019,-0.738973 0.21688,-0.45484 0.35416,-0.632396 0.59324,-0.764811 0.3203,-0.17743 1.13077,-1.115714 1.26453,-1.463994 0.0414,-0.10781 0.0754,-0.459958 0.0754,-0.782898 0,-0.474245 0.0327,-0.619773 0.1695,-0.756543 0.21039,-0.210375 0.32377,-0.210375 0.59273,0 0.11642,0.09105 0.31636,0.166432 0.44442,0.167432 0.17044,0.0014 0.23254,0.04462 0.23254,0.160714 0,0.08721 0.0811,0.34064 0.17984,0.56379 0.13328,0.301295 0.1674,0.505981 0.1328,0.794266 -0.0622,0.51861 -0.84181,2.142089 -1.23816,2.578654 -0.79865,0.879701 -0.87561,1.148375 -0.6258,2.18333 0.1222,0.506435 0.12645,0.648629 0.0326,1.027846 -0.0631,0.25376 -0.21149,0.5481 -0.34985,0.69453 -0.23731,0.25114 -0.25988,0.33177 -0.56379,2.01073 -0.0367,0.20294 -0.0149,0.23254 0.16898,0.23254 0.25708,0 0.37665,-0.13235 0.41445,-0.45888 0.0264,-0.22786 0.24029,-0.43074 0.24029,-0.2279 0,0.049 0.30226,0.70947 0.67128,1.46761 0.79265,1.62848 1.02078,2.25712 1.02578,2.82309 0.003,0.33746 0.0513,0.47424 0.25373,0.71107 0.13781,0.16107 0.25137,0.33255 0.25218,0.38085 8e-4,0.0483 0.0888,0.17037 0.19534,0.2713 0.29217,0.27678 0.88597,1.75513 0.99787,2.48357 0.14749,0.96009 0.47404,2.17011 0.71675,2.65617 0.26464,0.52996 0.60292,0.89213 1.24127,1.32912 0.52143,0.35695 0.7441,0.40747 0.91157,0.20567 0.0581,-0.07 0.22453,-0.15922 0.37001,-0.19792 0.26346,-0.0701 0.26493,-0.0726 0.24443,-0.59686 -0.0113,-0.28949 -0.059,-0.59815 -0.10594,-0.68575 -0.10817,-0.20211 -0.10755,-1.1162 0.001,-2.83755 0.0978,-1.54664 0.16342,-1.81495 0.51832,-2.11357 0.22139,-0.18634 0.33525,-0.21446 0.86816,-0.21446 0.88493,0 1.91358,0.39056 1.91358,0.72657 0,0.0673 0.0378,0.18834 0.0837,0.26924 0.0459,0.0809 0.16726,0.39495 0.26976,0.69763 0.16134,0.47641 0.19119,0.78027 0.22169,2.26446 0.0233,1.13131 0.006,1.71463 -0.0512,1.71463 -0.0475,0 -0.10064,-0.0435 -0.11834,-0.0966 -0.0582,-0.17472 -1.19038,-0.5044 -1.90531,-0.555 -0.56456,-0.0399 -0.7357,-0.0228 -0.91002,0.0915 -0.27638,0.18113 -0.28314,0.39068 -0.008,0.39068 0.11366,0 0.23353,-0.0428 0.26613,-0.0956 0.0812,-0.13132 1.17798,-0.0435 1.56063,0.12505 0.16217,0.0714 0.3953,0.15062 0.5178,0.17622 0.12718,0.0266 0.24177,0.11984 0.26717,0.21704 0.0245,0.0937 0.10326,0.17002 0.17466,0.17002 0.1134,0 0.12322,0.17131 0.0796,1.34772 -0.0756,2.03303 0.13031,3.06702 0.73433,3.69021 0.19461,0.20078 0.36659,0.48384 0.42219,0.69505 0.0516,0.19594 0.12867,0.37761 0.17157,0.40411 0.0429,0.0265 0.18185,0.38081 0.30902,0.78703 0.1942,0.62045 0.23655,0.9283 0.26355,1.92391 0.0226,0.83183 -0.002,1.29894 -0.0817,1.56632 -0.10759,0.35985 -0.13567,0.3849 -0.50177,0.4563 -0.69167,0.13482 -1.10617,-0.0771 -1.12087,-0.57309 -0.005,-0.1722 -0.0629,-0.34646 -0.12867,-0.38706 -0.0748,-0.0462 -0.1384,-0.29026 -0.1695,-0.65267 -0.0434,-0.50616 -0.0711,-0.57929 -0.21911,-0.57929 -0.15193,0 -0.16612,0.0465 -0.13952,0.4532 0.0162,0.24931 0.064,0.57314 0.10593,0.71933 0.0419,0.1462 0.076,0.50988 0.076,0.80822 0,0.62982 -0.30738,1.35304 -0.69867,1.64486 -0.28289,0.21097 -0.30128,0.39585 -0.0398,0.39585 0.39143,0 0.625,-0.30276 1.06712,-1.3839 0.0747,-0.18302 0.13415,-0.22608 0.24495,-0.17828 0.0804,0.0347 0.43209,0.10549 0.78134,0.15709 0.77782,0.11489 0.80468,0.1859 0.39223,1.02475 -0.42899,0.8725 -0.42537,0.87109 -1.68207,0.82269 -1.30314,-0.0502 -1.6738,0.005 -1.6738,0.24856 0,0.1586 0.0298,0.1679 0.31781,0.1018 0.75584,-0.1736 2.22942,-0.0166 2.41122,0.25683 0.10227,0.15382 0.0735,1.10933 -0.0367,1.21957 -0.14874,0.14877 -0.48154,0.1214 -0.91415,-0.0749 -0.63955,-0.29061 -1.33862,-0.41309 -2.68821,-0.47129 -1.28316,-0.0553 -1.2914,-0.0548 -1.2914,0.12661 0,0.17347 0.0408,0.18325 0.82579,0.19585 1.01083,0.0162 1.10964,0.0241 1.79886,0.14366 0.59078,0.10245 1.20956,0.31528 1.51205,0.52038 l 0.18707,0.12713 -0.31419,0.50022 c -0.26531,0.42257 -0.32245,0.60015 -0.36845,1.14309 -0.0802,0.94583 0.0418,2.70737 0.21497,3.10575 0.15952,0.36699 0.1723,0.60523 0.2403,4.44986 0.0411,2.32987 0.0594,2.56397 0.25269,3.25975 0.11453,0.41226 0.22982,0.93016 0.25632,1.15135 0.0414,0.34557 0.0272,0.40204 -0.10077,0.40204 -0.0819,0 -0.22384,-0.0502 -0.31574,-0.11162 -0.0918,-0.0614 -0.35784,-0.18135 -0.59067,-0.26665 -0.23283,-0.0853 -0.71849,-0.37865 -1.07952,-0.65216 -0.68379,-0.51803 -0.78976,-0.5741 -1.418,-0.75396 -0.20955,-0.06 -0.5145,-0.1768 -0.67748,-0.2589 -0.16298,-0.0821 -0.56286,-0.27332 -0.88883,-0.42529 -0.32597,-0.15197 -0.68768,-0.3379 -0.80409,-0.4129 -0.11642,-0.075 -0.49383,-0.2026 -0.8387,-0.2837 -0.44395,-0.10433 -0.67318,-0.20582 -0.78445,-0.34727 -0.0864,-0.10989 -0.27537,-0.22565 -0.41962,-0.25735 -0.41235,-0.0906 -1.18201,-0.45429 -1.46606,-0.69298 -0.5771,-0.48505 -0.96142,-1.40679 -0.81442,-1.95337 0.53639,-1.99409 0.53366,-1.9709 0.47026,-4.31343 -0.0324,-1.20007 -0.0648,-2.96297 -0.0718,-3.91759 -0.0135,-1.86717 -0.0479,-2.05774 -0.58653,-3.22409 -0.13031,-0.28217 -0.26723,-0.83402 -0.35553,-1.43247 -0.14433,-0.97792 -0.42691,-2.01913 -0.72864,-2.68718 -0.0892,-0.1974 -0.16175,-0.39913 -0.16175,-0.44803 0,-0.0489 -0.0764,-0.23861 -0.1695,-0.42116 -0.14533,-0.28488 -0.16949,-0.49861 -0.16949,-1.51051 0,-1.12487 -0.0672,-1.56916 -0.34675,-2.28203 -0.042,-0.10697 -0.0767,-0.25918 -0.077,-0.33848 -2.8e-4,-0.0793 -0.0575,-0.25367 -0.12713,-0.38705 -0.0696,-0.13338 -0.1266,-0.29616 -0.1266,-0.36226 0,-0.0661 -0.0949,-0.30821 -0.21136,-0.53795 -0.11637,-0.22974 -0.21187,-0.45988 -0.21187,-0.51108 0,-0.0512 -0.0949,-0.21789 -0.21136,-0.37052 -0.11647,-0.15263 -0.21187,-0.33581 -0.21187,-0.40721 0,-0.0714 -0.0545,-0.17549 -0.12144,-0.23099 -0.0669,-0.0555 -0.14515,-0.22188 -0.17415,-0.37 -0.029,-0.14813 -0.085,-0.34564 -0.12454,-0.43874 -0.3934,-0.92702 -0.51956,-1.63487 -0.55656,-3.13262 -0.0167,-0.67595 -0.0722,-1.21483 -0.14417,-1.39682 -0.22049,-0.55729 -0.44313,-0.97403 -0.74725,-1.39733 -0.16728,-0.23283 -0.32658,-0.49963 -0.35398,-0.59273 -0.0274,-0.0931 -0.16755,-0.50565 -0.31109,-0.91674 -0.14355,-0.41109 -0.26097,-0.82699 -0.26097,-0.92449 0,-0.0975 -0.0634,-0.24751 -0.14107,-0.33331 -0.11311,-0.12495 -0.15139,-0.41302 -0.19379,-1.44694 -0.0292,-0.70996 -0.0799,-1.334 -0.11266,-1.387 -0.034,-0.0552 0.0631,-0.20467 0.2279,-0.34933 0.44282,-0.38877 0.63375,-0.86506 0.34675,-0.86506 -0.0699,0 -0.12713,0.0383 -0.12713,0.0847 0,0.0466 -0.0386,0.0847 -0.0858,0.0847 -0.0472,0 -0.19708,0.12372 -0.3328,0.27491 -0.22447,0.25029 -0.2522,0.26115 -0.3085,0.11576 -0.0341,-0.0879 -0.0225,-0.50068 0.0253,-0.91726 0.0867,-0.755107 0.0881,-0.758646 0.51624,-1.194756 0.41519,-0.422925 0.43678,-0.469862 0.65681,-1.411283 0.12515,-0.535505 0.26058,-1.009999 0.30128,-1.054199 0.0407,-0.04424 0.0744,-0.135055 0.0744,-0.202055 0,-0.06703 0.10665,-0.29793 0.23719,-0.51263 0.13056,-0.2147 0.28849,-0.523283 0.35089,-0.686263 0.0623,-0.162989 0.18063,-0.448844 0.26303,-0.635104 0.0824,-0.186255 0.23111,-0.550734 0.33021,-0.809769 0.13713,-0.35853 0.30102,-0.577645 0.68627,-0.91674 0.27835,-0.24501 0.58609,-0.602594 0.68419,-0.794784 0.0981,-0.19219 0.51622,-0.68125 0.92914,-1.086755 0.41292,-0.40551 0.78816,-0.835921 0.83406,-0.956531 0.048,-0.1261 0.10925,-0.194204 0.20361,-0.207739 z m -3.8561,0.60048 -0.002,5.17e-4 v 0.01395 z m 1.87017,0.753442 c 0.0256,-0.0024 0.0506,0.0046 0.0708,0.02481 0.0287,0.02872 0.0116,0.09324 -0.0382,0.143144 -0.0608,0.0604 -0.10848,0.06217 -0.14418,0.0041 -0.0451,-0.07297 0.0349,-0.164808 0.11162,-0.172083 z m -0.25735,0.508496 h 5.2e-4 c 0.015,0.0065 0.011,0.04257 -0.002,0.111622 h 5.2e-4 c -0.017,0.08779 -0.0787,0.17542 -0.13694,0.19482 -0.15107,0.05029 -0.13081,-0.106527 0.031,-0.240812 0.0592,-0.0491 0.092,-0.07217 0.10697,-0.06563 z m 8.48682,25.21965 c -0.1954,0 -0.0813,0.2494 0.29508,0.64699 0.21405,0.22607 0.44839,0.52537 0.52089,0.66507 0.0725,0.1397 0.2712,0.44465 0.44132,0.67748 0.17011,0.23283 0.45456,0.70909 0.632,1.05834 0.17743,0.34925 0.40081,0.7205 0.49661,0.82527 0.16272,0.17805 0.39843,0.25886 0.39843,0.13642 0,-0.0299 -0.15221,-0.29573 -0.33848,-0.59066 -0.18626,-0.29493 -0.33848,-0.56918 -0.33848,-0.60978 0,-0.0406 -0.21108,-0.3892 -0.46871,-0.77411 -0.25764,-0.38491 -0.52141,-0.8017 -0.58601,-0.92656 -0.14938,-0.28886 -0.92774,-1.10846 -1.05265,-1.10846 z m -5.77174,24.12979 c 0.14345,0 1.02887,0.36769 1.53324,0.63666 0.11892,0.0634 0.42689,0.19412 0.6842,0.29042 0.25731,0.0963 0.62692,0.31125 0.82114,0.47749 0.31421,0.26897 0.35295,0.34254 0.35295,0.67128 0,0.20317 -0.0389,0.39302 -0.0847,0.42167 -0.0466,0.0288 -0.0847,0.12925 -0.0847,0.22325 0,0.094 -0.11141,0.28247 -0.24753,0.41858 -0.24112,0.24072 -0.26773,0.24674 -1.07901,0.23874 -0.90266,-0.009 -1.04136,-0.036 -1.42472,-0.27957 -0.13954,-0.0888 -0.3968,-0.25115 -0.57102,-0.3607 -0.17423,-0.10954 -0.41447,-0.34675 -0.53382,-0.5271 l -0.21704,-0.32814 0.12971,-0.75086 c 0.10512,-0.60865 0.17133,-0.78661 0.3483,-0.94103 0.12007,-0.1048 0.2878,-0.19069 0.3731,-0.19069 z m -15.311207,3.990974 c 0.326991,0.0209 0.558302,0.1909 0.983919,0.64389 0.609788,0.649 0.773428,0.95354 0.870228,1.61696 0.0607,0.41616 0.24954,0.93026 0.50178,1.36839 0.0402,0.0699 0.21036,0.36109 0.37827,0.64751 0.16791,0.28641 0.30541,0.57737 0.30541,0.64647 0,0.0691 0.086,0.18225 0.1912,0.25115 0.10519,0.0688 0.24606,0.23513 0.31316,0.36948 0.17021,0.34098 0.6887,0.87902 0.84698,0.87902 0.0725,0 0.17694,0.0733 0.23254,0.16226 0.0821,0.13146 0.0771,0.17086 -0.0284,0.21136 -0.14686,0.0564 -0.30216,0.0518 -1.25935,-0.0377 -1.16217,-0.10867 -1.65567,-0.27307 -2.370402,-0.79013 -0.1397,-0.10106 -0.359263,-0.23721 -0.487308,-0.30231 -0.12805,-0.0651 -0.232544,-0.16392 -0.232544,-0.21962 0,-0.0557 -0.07879,-0.20195 -0.175183,-0.32453 -0.15149,-0.19259 -0.178137,-0.35775 -0.195337,-1.21749 -0.01999,-1.00101 -0.0312,-1.05044 -0.482658,-2.096 -0.04021,-0.0931 -0.13589,-0.48822 -0.21239,-0.87798 -0.15821,-0.80553 -0.153217,-0.81577 0.450618,-0.90692 0.141047,-0.0213 0.260485,-0.0307 0.369487,-0.0238 z m 22.383127,0.83871 c -0.0692,-0.002 -0.14737,0.0454 -0.18242,0.14418 -0.15671,0.44192 -0.54226,0.55065 -1.22628,0.34571 -0.24893,-0.0741 -0.35386,-0.0745 -0.42736,-0.001 -0.12341,0.1234 -0.0715,0.17268 0.32969,0.31574 0.35027,0.1249 1.03148,0.15896 1.17306,0.0584 0.18405,-0.13071 0.46302,-0.55787 0.46302,-0.709 0,-0.10003 -0.0605,-0.1518 -0.12971,-0.154 z m 8.40052,1.64176 c -0.20536,-0.0788 -1.1375,0.63238 -1.2733,0.97152 -0.0669,0.16716 -0.20163,0.3769 -0.29973,0.4656 -0.20063,0.18136 -0.23081,0.35428 -0.0729,0.41548 0.12337,0.0477 0.42876,-0.28047 0.65422,-0.70383 0.1716,-0.32222 0.34068,-0.48345 0.70849,-0.67438 0.2992,-0.15532 0.45111,-0.40999 0.28318,-0.47439 z m -4.56096,1.00718 c -0.0436,0.0108 -0.0951,0.0454 -0.16175,0.10542 -0.28247,0.25427 -0.68443,0.8747 -0.62683,0.9679 0.0977,0.15815 0.29144,0.0842 0.41754,-0.15968 0.0694,-0.13411 0.22834,-0.36506 0.35295,-0.51315 0.16678,-0.19817 0.20128,-0.2943 0.13178,-0.3638 -0.0348,-0.0348 -0.0701,-0.0475 -0.11369,-0.0367 z m -22.4224,0.14779 c 0.18956,0.009 0.41417,0.0619 0.62322,0.1571 0.29755,0.13562 0.39782,0.24742 0.58756,0.65629 0.12577,0.271 0.38132,0.69355 0.56792,0.93896 0.18659,0.24542 0.339,0.48045 0.339,0.52245 0,0.042 0.0909,0.18474 0.20205,0.31677 0.11109,0.13202 0.25928,0.37685 0.32918,0.54416 0.0699,0.16731 0.24572,0.38873 0.39068,0.49196 0.14482,0.10323 0.26354,0.22325 0.26354,0.26665 0,0.19784 -0.86912,-0.0888 -1.22524,-0.40411 -0.16737,-0.14819 -0.37918,-0.29336 -0.47078,-0.32246 -0.16358,-0.0519 -0.67489,-0.71359 -0.67489,-0.87334 0,-0.0449 -0.0503,-0.10084 -0.11214,-0.12454 -0.0619,-0.0237 -0.27476,-0.31563 -0.47284,-0.64905 -0.19808,-0.33342 -0.41537,-0.62771 -0.48317,-0.65371 -0.19427,-0.0745 -0.39252,-0.61825 -0.27647,-0.75809 0.0683,-0.0823 0.22281,-0.11786 0.41238,-0.10904 z m 15.07866,8.4708 c -0.15034,-0.0158 -0.2457,0.002 -0.29714,0.0532 -0.0354,0.0349 -0.54553,0.063 -1.13378,0.063 -0.91205,0 -1.07357,0.0201 -1.09657,0.1354 -0.0177,0.0887 0.084,0.18251 0.29455,0.27181 0.22864,0.097 0.44286,0.12043 0.74415,0.0822 0.23284,-0.0298 0.92965,-0.0571 1.5477,-0.0599 0.90254,-0.005 1.11941,-0.0286 1.10071,-0.12143 -0.0128,-0.0636 -0.25235,-0.18679 -0.53175,-0.27389 -0.27228,-0.0849 -0.47753,-0.13456 -0.62787,-0.15038 z m -0.38499,1.87896 c -0.34316,-0.003 -0.55345,0.0567 -0.55345,0.18138 0,0.0716 0.2284,0.12135 0.71365,0.15555 0.39243,0.0277 1.16409,0.16946 1.71463,0.31471 0.55038,0.14526 1.29428,0.29779 1.65261,0.33899 0.51263,0.0589 0.81926,0.1585 1.43919,0.46768 0.52275,0.26071 1.00132,0.42992 1.42265,0.50332 v 5.2e-4 c 0.77729,0.1355 0.9939,0.14764 1.048,0.0605 0.0955,-0.15449 -0.11332,-0.24538 -0.79375,-0.34571 -0.68538,-0.10106 -1.49664,-0.39363 -1.77561,-0.64027 -0.1569,-0.13871 -1.09846,-0.38603 -1.47019,-0.38603 -0.14789,0 -0.40214,-0.0393 -0.56482,-0.0879 -0.16268,-0.0484 -0.44832,-0.12199 -0.63459,-0.16329 -0.18627,-0.0413 -0.56706,-0.13076 -0.84646,-0.19896 -0.53232,-0.12998 -1.00869,-0.1971 -1.35186,-0.2005 z m 7.22075,13.21056 c -0.0678,0.01 -0.11427,0.0161 -0.18087,0.0258 0.0215,0.001 0.0431,0.003 0.0646,0.004 0.10962,0.006 0.21951,0.006 0.32918,0.0114 -0.0714,-0.0121 -0.14216,-0.0264 -0.21291,-0.0408 z m -9.0196,0.55707 0.009,0.006 c 0.0134,7.7e-4 0.0269,0.002 0.0403,0.003 -0.0163,-0.003 -0.0328,-0.006 -0.0491,-0.009 z"
       inkscape:export-filename="path1.svg"
       inkscape:export-xdpi="96"
       inkscape:export-ydpi="96" /></g></svg>
